<?xml version="1.0" encoding="utf-8"?>
<!-- Generator: Adobe Illustrator 17.0.2, SVG Export Plug-In . SVG Version: 6.00 Build 0)  -->
<!DOCTYPE svg PUBLIC "-//W3C//DTD SVG 1.1//EN" "http://www.w3.org/Graphics/SVG/1.1/DTD/svg11.dtd">
<svg version="1.1" id="Hex" xmlns="http://www.w3.org/2000/svg" xmlns:xlink="http://www.w3.org/1999/xlink" x="0px" y="0px"
	 width="750px" height="133px" viewBox="0 0 750 133" enable-background="new 0 0 750 133" xml:space="preserve">
<circle fill="#1F429B" cx="66.301" cy="66.5" r="65.582"/>
<path fill="#FCFCFC" d="M64.874,19.964l27.027,45.828L80.547,87.634l-25.794,1.103l-27.75-44.981l0,0c0,0-5.298,7.686-5.298,21.171
	c0,24.832,20.13,44.963,44.963,44.963c24.832,0,44.963-20.131,44.963-44.963C111.63,40.095,89.706,19.964,64.874,19.964"/>
<g>
	<polygon opacity="0.2" fill="#FCFCFC" points="82.985,58.641 61.727,58.874 53.633,76.153 73.427,75.668 	"/>
	<polygon opacity="0.3" fill="#FCFCFC" points="79.681,53.426 59.379,54.413 50.945,71.549 70.576,71.232 	"/>
	<polygon opacity="0.4" fill="#FCFCFC" points="77.325,49.085 57.017,49.957 48.139,67.245 68.118,66.839 	"/>
	<polygon opacity="0.5" fill="#FCFCFC" points="73.829,43.519 53.522,44.391 44.644,61.679 64.623,61.273 	"/>
	<polygon opacity="0.6" fill="#FCFCFC" points="70.334,37.953 50.027,38.825 41.149,56.113 61.128,55.707 	"/>
	<polygon opacity="0.7" fill="#FCFCFC" points="66.839,32.387 46.531,33.259 37.653,50.547 57.633,50.141 	"/>
	<polygon opacity="0.9" fill="#FCFCFC" points="63.343,26.821 43.036,27.693 34.158,44.982 54.137,44.575 	"/>
</g>
<text transform="matrix(1 0 0 1 154.3544 95.9472)" fill="#1F429B" font-family="'AlfaSlabOne-Regular'" font-size="69.9595">JD Motorwerke</text>
</svg>
