<?xml version="1.0" encoding="utf-8"?>
<!-- Generator: Adobe Illustrator 17.0.2, SVG Export Plug-In . SVG Version: 6.00 Build 0)  -->
<!DOCTYPE svg PUBLIC "-//W3C//DTD SVG 1.1//EN" "http://www.w3.org/Graphics/SVG/1.1/DTD/svg11.dtd">
<svg version="1.1" id="Hex" xmlns="http://www.w3.org/2000/svg" xmlns:xlink="http://www.w3.org/1999/xlink" x="0px" y="0px"
	 width="89.926px" height="89.926px" viewBox="66.642 101.142 89.926 89.926" enable-background="new 66.642 101.142 89.926 89.926"
	 xml:space="preserve">
<path fill="#FCFCFC" d="M109.811,101.142l27.027,45.828l-11.354,21.842l-25.794,1.103l-27.75-44.981l0,0
	c0,0-5.298,7.686-5.298,21.171c0,24.832,20.13,44.963,44.963,44.963c24.832,0,44.963-20.131,44.963-44.963
	C156.567,121.273,134.643,101.142,109.811,101.142"/>
<g>
	<polygon opacity="0.2" fill="#FCFCFC" enable-background="new    " points="126.922,139.819 105.664,140.052 97.57,157.331 
		117.364,156.846 	"/>
	<polygon opacity="0.3" fill="#FCFCFC" enable-background="new    " points="123.618,134.604 103.316,135.591 94.882,152.727 
		114.512,152.41 	"/>
	<polygon opacity="0.4" fill="#FCFCFC" enable-background="new    " points="121.261,130.263 100.954,131.135 92.076,148.423 
		112.055,148.017 	"/>
	<polygon opacity="0.5" fill="#FCFCFC" enable-background="new    " points="117.766,124.697 97.459,125.569 88.581,142.857 
		108.56,142.451 	"/>
	<polygon opacity="0.6" fill="#FCFCFC" enable-background="new    " points="114.271,119.131 93.963,120.003 85.086,137.291 
		105.065,136.885 	"/>
	<polygon opacity="0.7" fill="#FCFCFC" enable-background="new    " points="110.775,113.565 90.468,114.437 81.59,131.725 
		101.569,131.319 	"/>
	<polygon opacity="0.9" fill="#FCFCFC" enable-background="new    " points="107.28,107.999 86.973,108.871 78.095,126.16 
		98.074,125.754 	"/>
</g>
</svg>
