<?xml version="1.0" encoding="utf-8"?>
<!-- Generator: Adobe Illustrator 21.0.2, SVG Export Plug-In . SVG Version: 6.00 Build 0)  -->
<svg version="1.1" id="Hex" xmlns="http://www.w3.org/2000/svg" xmlns:xlink="http://www.w3.org/1999/xlink" x="0px" y="0px"
	 viewBox="0 0 782 136" style="enable-background:new 0 0 782 136;" xml:space="preserve">
<style type="text/css">
	.st0{opacity:0.75;fill:#FAFBFC;}
	.st1{fill:none;}
	.st2{opacity:0.75;fill:#FCFCFC;enable-background:new    ;}
	.st3{font-family:'AlfaSlabOne-Regular';}
	.st4{font-size:71.2503px;}
	.st5{fill:#1F429B;}
	.st6{opacity:0.2;fill:#1F429B;enable-background:new    ;}
	.st7{opacity:0.3;fill:#1F429B;enable-background:new    ;}
	.st8{opacity:0.4;fill:#1F429B;enable-background:new    ;}
	.st9{opacity:0.5;fill:#1F429B;enable-background:new    ;}
	.st10{opacity:0.6;fill:#1F429B;enable-background:new    ;}
	.st11{opacity:0.7;fill:#1F429B;enable-background:new    ;}
	.st12{opacity:0.9;fill:#1F429B;enable-background:new    ;}
</style>
<circle class="st0" cx="67.9" cy="68" r="66.8"/>
<rect x="158.6" y="39.8" class="st1" width="622.3" height="69.1"/>
<text transform="matrix(1 0 0 1 158.607 95.2633)" class="st2 st3 st4">JD Motorwerke</text>
<path class="st5" d="M66.4,20.6L94,67.3L82.4,89.5l-26.3,1.1L27.9,44.8l0,0c0,0-5.4,7.8-5.4,21.6c0,25.3,20.5,45.8,45.8,45.8
	c25.3,0,45.8-20.5,45.8-45.8C114.1,41.1,91.7,20.6,66.4,20.6"/>
<g>
	<polygon class="st6" points="84.8,60 63.2,60.2 55,77.8 75.1,77.3 	"/>
	<polygon class="st7" points="81.5,54.6 60.8,55.7 52.2,73.1 72.2,72.8 	"/>
	<polygon class="st8" points="79.1,50.2 58.4,51.1 49.4,68.7 69.7,68.3 	"/>
	<polygon class="st9" points="75.5,44.6 54.8,45.4 45.8,63.1 66.1,62.6 	"/>
	<polygon class="st10" points="72,38.9 51.3,39.8 42.2,57.4 62.6,57 	"/>
	<polygon class="st11" points="68.4,33.2 47.7,34.1 38.7,51.7 59,51.3 	"/>
	<polygon class="st12" points="64.8,27.6 44.2,28.4 35.1,46 55.5,45.6 	"/>
</g>
</svg>
