<?xml version="1.0" encoding="utf-8"?>
<!-- Generator: Adobe Illustrator 17.0.2, SVG Export Plug-In . SVG Version: 6.00 Build 0)  -->
<!DOCTYPE svg PUBLIC "-//W3C//DTD SVG 1.1//EN" "http://www.w3.org/Graphics/SVG/1.1/DTD/svg11.dtd">
<svg version="1.1" id="Hex" xmlns="http://www.w3.org/2000/svg" xmlns:xlink="http://www.w3.org/1999/xlink" x="0px" y="0px"
	 width="136px" height="136px" viewBox="50.447 84.151 136 136" enable-background="new 50.447 84.151 136 136"
	 xml:space="preserve">
<circle fill="#FAFBFC" cx="118.447" cy="152.151" r="66.792"/>
<path fill="#1F429B" d="M116.995,104.757l27.526,46.674l-11.564,22.245l-26.271,1.123l-28.263-45.812l0,0
	c0,0-5.396,7.828-5.396,21.562c0,25.291,20.501,45.793,45.793,45.793c25.29,0,45.793-20.501,45.793-45.793
	C164.613,125.259,142.284,104.757,116.995,104.757"/>
<g>
	<polygon opacity="0.2" fill="#1F429B" enable-background="new    " points="134.402,144.11 112.752,144.347 104.51,161.945 
		124.668,161.451 	"/>
	<polygon opacity="0.3" fill="#1F429B" enable-background="new    " points="131.038,138.799 110.361,139.804 101.772,157.256 
		121.764,156.933 	"/>
	<polygon opacity="0.4" fill="#1F429B" enable-background="new    " points="128.638,134.378 107.956,135.266 98.914,152.873 
		119.262,152.46 	"/>
	<polygon opacity="0.5" fill="#1F429B" enable-background="new    " points="125.078,128.708 104.396,129.598 95.354,147.205 
		115.702,146.79 	"/>
	<polygon opacity="0.6" fill="#1F429B" enable-background="new    " points="121.519,123.04 100.837,123.928 91.795,141.535 
		112.143,141.122 	"/>
	<polygon opacity="0.7" fill="#1F429B" enable-background="new    " points="117.958,117.372 97.277,118.26 88.235,135.867 
		108.583,135.454 	"/>
	<polygon opacity="0.9" fill="#1F429B" enable-background="new    " points="114.4,111.702 93.716,112.592 84.675,130.199 
		105.022,129.784 	"/>
</g>
</svg>
