<?xml version="1.0" encoding="utf-8"?>
<!-- Generator: Adobe Illustrator 17.0.2, SVG Export Plug-In . SVG Version: 6.00 Build 0)  -->
<!DOCTYPE svg PUBLIC "-//W3C//DTD SVG 1.1//EN" "http://www.w3.org/Graphics/SVG/1.1/DTD/svg11.dtd">
<svg version="1.1" id="Hex" xmlns="http://www.w3.org/2000/svg" xmlns:xlink="http://www.w3.org/1999/xlink" x="0px" y="0px"
	 width="315.091px" height="33.735px" viewBox="0 7.612 315.091 33.735" enable-background="new 0 7.612 315.091 33.735"
	 xml:space="preserve">
<text transform="matrix(1 0 0 1 40.105 31.5196)" fill="#0A0A0A" font-family="'DodgerCondensed'" font-size="28">JD MotorWerke</text>
<g>
	<path fill="#0A0A0A" d="M16.168,7.612l10.165,17.199l-4.272,8.176l-9.686,0.405L1.989,16.524l0,0c0,0-1.989,2.873-1.989,7.955
		c0,9.318,7.55,16.868,16.868,16.868s16.868-7.55,16.868-16.868S25.486,7.612,16.168,7.612"/>
	<g>
		<g>
			<polygon opacity="0.2" fill="#0A0A0A" enable-background="new    " points="22.944,22.123 14.989,22.197 11.969,28.678 
				19.372,28.494 			"/>
			<polygon opacity="0.3" fill="#0A0A0A" enable-background="new    " points="21.729,20.134 14.105,20.539 10.938,26.948 
				18.304,26.837 			"/>
			<polygon opacity="0.4" fill="#0A0A0A" enable-background="new    " points="20.845,18.514 13.222,18.845 9.907,25.327 
				17.383,25.18 			"/>
			<polygon opacity="0.5" fill="#0A0A0A" enable-background="new    " points="19.519,16.451 11.896,16.746 8.581,23.265 
				16.057,23.081 			"/>
			<polygon opacity="0.6" fill="#0A0A0A" enable-background="new    " points="18.23,14.352 10.607,14.684 7.255,21.165 
				14.768,21.018 			"/>
			<polygon opacity="0.7" fill="#0A0A0A" enable-background="new    " points="16.904,12.253 9.281,12.584 5.966,19.066 
				13.443,18.919 			"/>
			<polygon opacity="0.9" fill="#0A0A0A" enable-background="new    " points="15.579,10.19 7.992,10.485 4.641,16.967 
				12.154,16.82 			"/>
		</g>
	</g>
</g>
</svg>
